<svg height="2500" viewBox="199.2 123.8 681.6 832.4" width="2500" xmlns="http://www.w3.org/2000/svg"><path d="m225.5 882h-4.4l-6.1-11.6q-1.8-3.4-3.4-4.6-1.6-1.1-3.9-1h-4.8v17.2h-3.7v-40.2h11.3q5.3 0 8.6 2.7 3.3 2.8 3.3 8 0 4.2-2.2 7.1-2.3 3-6.5 4v.2q1.3.6 2.4 1.8 1.1 1.1 2.3 3.2zm-22.6-36.8v16.2h6.6q4 0 6.5-2.3 2.5-2.4 2.5-6.3 0-3.6-2.2-5.6-2.3-2-6.4-2z" fill-rule="evenodd"/><path d="m290.2 882h-20.5v-40.2h19.6v3.4h-15.9v14.7h14.7v3.4h-14.7v15.3h16.8z"/><path d="m331.9 882 15.3-40.2h3.8l15.2 40.2h-4.2l-4.3-11.6h-17.4l-4.2 11.6zm9.6-15h14.9l-6.6-18.2q-.3-.6-.4-1.3-.2-.7-.4-1.6h-.1q-.2.9-.4 1.7-.2.7-.4 1.2z" fill-rule="evenodd"/><path d="m429.8 882h-19.9v-40.2h3.7v36.8h16.2zm117.8 0h-20.6v-40.2h19.6v3.4h-15.8v14.7h14.7v3.4h-14.7v15.3h16.8zm42.5-3.1 2-2.8q2.3 1.7 4.8 2.4 2.4.8 5.6.8 3.8 0 6.3-2.1 2.4-2 2.4-5.7 0-3-1.9-4.9-2-1.9-6.6-3.5-5.7-2-8.3-4.6-2.7-2.6-2.7-6.6 0-4.9 3.4-7.9 3.4-2.9 9-2.9 2.4 0 4.8.6t4.9 1.9l-1.5 3q-2.1-1.1-4.2-1.6-2-.5-4.4-.5-3.7 0-6 1.8-2.2 1.9-2.2 5.2 0 2.8 2 4.7 2.1 1.8 6.8 3.4 5.7 2 8.2 4.6 2.5 2.6 2.5 6.9 0 5.2-3.4 8.4t-9.3 3.2q-3.5 0-6.4-.9-2.9-.9-5.8-2.9zm93.3-33.7h-11.7v36.8h-3.7v-36.8h-11.6v-3.4h27z"/><path d="m719.3 882 15.3-40.2h3.8l15.3 40.2h-4.2l-4.3-11.6h-17.5l-4.2 11.6zm9.6-15h14.9l-6.6-18.2q-.2-.6-.4-1.3-.2-.7-.4-1.6h-.1q-.2.9-.4 1.7-.2.7-.4 1.2z" fill-rule="evenodd"/><path d="m816.3 845.2h-11.6v36.8h-3.7v-36.8h-11.6v-3.4h26.9zm64.5 36.8h-20.5v-40.2h19.6v3.4h-15.9v14.7h14.8v3.4h-14.8v15.3h16.8zm-473.1 70.8q-3.1 1.7-6.4 2.6-3.3.8-6.8.8-8.5 0-13.7-5.4-5.1-5.5-5.1-14.8 0-9.5 5.6-15.4 5.6-6 14.9-6 3.1 0 5.8.7 2.7.7 5.5 2.1l-1.5 3.1q-2.4-1.3-4.8-1.9-2.3-.6-5.1-.6-7.4 0-12 4.8-4.5 4.8-4.5 12.8 0 8.3 4.1 12.8 4.1 4.4 11.4 4.4 2.5 0 4.7-.5 2.2-.6 4.1-1.6v-12.3h-9.1v-3.4h12.9z"/><path d="m480.7 955.6h-4.4l-6.1-11.7q-1.9-3.4-3.5-4.5-1.5-1.1-3.8-1h-4.8v17.2h-3.8v-40.3h11.4q5.2 0 8.5 2.8 3.4 2.8 3.4 7.9 0 4.2-2.3 7.2-2.3 2.9-6.5 4v.1q1.3.6 2.4 1.8 1.1 1.2 2.3 3.3zm-22.6-36.9v16.3h6.7q3.9 0 6.4-2.4 2.5-2.3 2.5-6.2 0-3.6-2.2-5.6-2.2-2.1-6.4-2.1zm82.4 37.5q-8.5 0-13.6-5.6-5.1-5.7-5.1-14.7 0-9.7 5.2-15.5 5.2-5.8 14.2-5.8 8.3 0 13.3 5.6 5.1 5.6 5.1 14.7 0 9.9-5.2 15.6-5.2 5.7-13.9 5.7zm0-3.4q7 0 11.1-4.6 4.1-4.5 4.1-12.8 0-8.2-4-12.8-3.9-4.6-10.9-4.6-6.7 0-10.9 4.9-4.2 4.8-4.2 12.6 0 7.9 4 12.6 4.1 4.7 10.8 4.7z" fill-rule="evenodd"/><path d="m633.4 939.8q0 8.2-3.7 12.3-3.7 4.1-10.9 4.1-7 0-10.7-3.9-3.6-4-3.6-11.8v-25.2h3.7v24.8q0 6.3 2.8 9.5t8.2 3.2q5.1 0 7.8-3.1t2.7-9.2v-25.2h3.7z"/><path d="m684.5 940.3v15.3h-3.8v-40.3h10.4q6.4 0 9.8 3.1 3.4 3.1 3.4 8.8 0 5.7-3.8 9.4t-10.5 3.7zm0-21.6v18.2h5.4q5.1 0 7.8-2.4 2.7-2.5 2.7-7 0-4.4-2.5-6.6-2.4-2.2-7.4-2.2zm-419.7-110.9 30.1-78.7h9.6l30.3 78.7h-10.2l-8-21h-34.1l-7.5 21zm20.9-29.4h28l-12.8-34.2q-.4-1-.6-1.8-.2-.7-.6-1.9h-.2q-.4 1.2-.7 2-.2.7-.6 1.7z" fill-rule="evenodd"/><path d="m395.1 807.8h-40.8v-78.7h9.2v70.4h31.6zm60.7 0h-40.8v-78.7h9.2v70.4h31.6zm29.1 0h-9.2v-78.7h9.2z"/><path d="m504.5 807.8 30.1-78.7h9.6l30.3 78.7h-10.2l-8-21h-34.1l-7.5 21zm20.9-29.4h28l-12.8-34.2q-.4-1-.6-1.8-.2-.7-.6-1.9h-.2q-.4 1.2-.7 2-.2.7-.6 1.7z" fill-rule="evenodd"/><path d="m657.4 807.8h-11.3l-40.5-62.7q-.8-1.3-1.2-1.9-.4-.6-1.1-1.6h-.3q.1 1.1.2 3.4v62.8h-9.2v-78.7h12l39.4 61.7q1 1.7 1.6 2.6.5 1 1.2 2.3h.2q-.1-1.7-.1-4.5-.1-2.8-.1-6.7v-55.4h9.2zm92.3-17.2q-3.8 8-11.6 13.3-7.9 5.2-19.9 5.2-16.8 0-27.1-10.8-10.4-10.9-10.4-28.4 0-18.8 10.6-30.5 10.6-11.6 27.2-11.6 10.7 0 18.6 4.9 7.9 5 11.6 13.9l-7.9 3.4q-3.4-6.7-9-10.2-5.6-3.4-13.3-3.4-12.3 0-20.2 9.1-7.9 9.1-7.9 23.9 0 14 7.7 22.6 7.7 8.6 20.3 8.6 8.7 0 14.3-3.8 5.7-3.8 9-10.2zm65.5 17.2h-41.7v-78.7h40v8.3h-30.7v26.2h28.4v8.3h-28.4v27.6h32.4z"/><path d="m299.6 662v-234.7q79.1-38.3 158.2-76.5v311.2h-57.3v-538.2q83.7 46.2 167.4 92.5v445.7h-57.4v-289q83.4-57.7 166.7-115.4v404.4h-61.2v-274.5q86.4 36.7 172.9 73.4v201.1" fill="none" stroke="#000" stroke-miterlimit="10" stroke-width="9.4"/></svg>